<?xml version="1.0" encoding="UTF-8" standalone="no"?>
<!DOCTYPE svg PUBLIC "-//W3C//DTD SVG 1.1//EN" "http://www.w3.org/Graphics/SVG/1.1/DTD/svg11.dtd">
<svg width="100%" height="100%" viewBox="0 0 25 25" version="1.1" xmlns="http://www.w3.org/2000/svg" xmlns:xlink="http://www.w3.org/1999/xlink" xml:space="preserve" xmlns:serif="http://www.serif.com/" style="fill-rule:evenodd;clip-rule:evenodd;stroke-linejoin:round;stroke-miterlimit:2;">
    <g id="up-right-arrow-icon" serif:id="up right arrow icon" transform="matrix(0.957489,0,0,0.957489,-55.0029,-541.407)">
        <g transform="matrix(0.913043,0,0,0.935787,58.087,565.803)">
            <path d="M12.5,5.488C12.5,3.011 10.439,1 7.9,1L5.6,1C3.061,1 1,3.011 1,5.488L1,8.012C1,10.489 3.061,12.5 5.6,12.5L7.9,12.5C10.439,12.5 12.5,10.489 12.5,8.012L12.5,5.488Z" style="fill:rgb(254,253,255);"/>
        </g>
        <g transform="matrix(0.913043,0,0,0.935787,58.087,578.564)">
            <path d="M12.5,5.488C12.5,3.011 10.439,1 7.9,1L5.6,1C3.061,1 1,3.011 1,5.488L1,8.012C1,10.489 3.061,12.5 5.6,12.5L7.9,12.5C10.439,12.5 12.5,10.489 12.5,8.012L12.5,5.488Z" style="fill:rgb(254,253,255);"/>
        </g>
        <g transform="matrix(0.913043,0,0,0.935787,70.587,565.803)">
            <path d="M12.5,5.488C12.5,3.011 10.439,1 7.9,1L5.6,1C3.061,1 1,3.011 1,5.488L1,8.012C1,10.489 3.061,12.5 5.6,12.5L7.9,12.5C10.439,12.5 12.5,10.489 12.5,8.012L12.5,5.488Z" style="fill:rgb(254,253,255);"/>
        </g>
        <g transform="matrix(0.913043,0,0,0.935787,70.587,578.564)">
            <path d="M12.5,5.488C12.5,3.011 10.439,1 7.9,1L5.6,1C3.061,1 1,3.011 1,5.488L1,8.012C1,10.489 3.061,12.5 5.6,12.5L7.9,12.5C10.439,12.5 12.5,10.489 12.5,8.012L12.5,5.488Z" style="fill:rgb(254,253,255);"/>
        </g>
    </g>
</svg>
