<?xml version="1.0" encoding="UTF-8" standalone="no"?>
<!DOCTYPE svg PUBLIC "-//W3C//DTD SVG 1.1//EN" "http://www.w3.org/Graphics/SVG/1.1/DTD/svg11.dtd">
<svg width="100%" height="100%" viewBox="0 0 25 25" version="1.1" xmlns="http://www.w3.org/2000/svg" xmlns:xlink="http://www.w3.org/1999/xlink" xml:space="preserve" xmlns:serif="http://www.serif.com/" style="fill-rule:evenodd;clip-rule:evenodd;stroke-linejoin:round;stroke-miterlimit:2;">
    <g transform="matrix(0.933136,0,0,0.933136,-53.2861,-794.882)">
        <path d="M62.806,876.903C60.473,875.737 59,873.353 59,870.745C59,868.437 59,865.656 59,863.656C59,861.984 59.787,860.41 61.125,859.406C63.344,857.742 66.8,855.15 68.98,853.515C70.166,852.625 71.807,852.66 72.955,853.599C75.042,855.307 78.317,857.987 80.301,859.61C81.376,860.49 82,861.806 82,863.195C82,865.215 82,868.266 82,870.76C82,873.358 80.532,875.734 78.207,876.896C77.905,877.047 77.615,877.193 77.349,877.325C76.485,877.757 75.485,877.828 74.569,877.523C74.569,877.523 74.568,877.523 74.568,877.523C73.632,877.211 73,876.334 73,875.347C73,874.498 73,873.445 73,872.499C73,871.119 71.881,870 70.501,870C70.5,870 70.5,870 70.499,870C69.119,870 68,871.119 68,872.499C68,873.445 68,874.498 68,875.347C68,876.334 67.368,877.211 66.432,877.523C66.432,877.523 66.431,877.523 66.431,877.523C65.515,877.828 64.515,877.757 63.651,877.325C63.389,877.195 63.103,877.052 62.806,876.903Z" style="fill:white;"/>
    </g>
</svg>
