<?xml version="1.0" encoding="UTF-8" standalone="no"?>
<!DOCTYPE svg PUBLIC "-//W3C//DTD SVG 1.1//EN" "http://www.w3.org/Graphics/SVG/1.1/DTD/svg11.dtd">
<svg width="100%" height="100%" viewBox="0 0 25 25" version="1.1" xmlns="http://www.w3.org/2000/svg" xmlns:xlink="http://www.w3.org/1999/xlink" xml:space="preserve" xmlns:serif="http://www.serif.com/" style="fill-rule:evenodd;clip-rule:evenodd;stroke-linejoin:round;stroke-miterlimit:2;">
    <g id="person" transform="matrix(1,0,0,1,-348,-852.905)">
        <g transform="matrix(0.916667,0,0,0.912431,29.5833,74.6819)">
            <circle cx="361" cy="861" r="6" style="fill:white;"/>
        </g>
        <g transform="matrix(1,0,0,0.9,-0.5,86.7)">
            <path d="M370,872.89C370,869.637 367.627,867 364.699,867C362.367,867 359.633,867 357.301,867C354.373,867 352,869.637 352,872.89C352,873.167 352,873.44 352,873.706C352,875.525 353.327,877 354.964,877C358.303,877 363.697,877 367.036,877C368.673,877 370,875.525 370,873.706C370,873.44 370,873.167 370,872.89Z" style="fill:white;"/>
        </g>
    </g>
</svg>
