<?xml version="1.0" encoding="UTF-8" standalone="no"?>
<!DOCTYPE svg PUBLIC "-//W3C//DTD SVG 1.1//EN" "http://www.w3.org/Graphics/SVG/1.1/DTD/svg11.dtd">
<svg width="100%" height="100%" viewBox="0 0 25 25" version="1.1" xmlns="http://www.w3.org/2000/svg" xmlns:xlink="http://www.w3.org/1999/xlink" xml:space="preserve" xmlns:serif="http://www.serif.com/" style="fill-rule:evenodd;clip-rule:evenodd;stroke-linejoin:round;stroke-miterlimit:2;">
    <g id="scan" transform="matrix(1,0,0,1,-203,-853.259)">
        <path d="M213.5,877.209L213.5,874.732L210.965,874.732C208.489,874.732 206.479,872.721 206.479,870.245L206.479,867.759L204,867.759L204,871.484C204,874.643 206.565,877.209 209.725,877.209L213.5,877.209ZM217.5,874.732L217.5,877.209L221.275,877.209C224.435,877.209 227,874.643 227,871.484L227,867.759L224.521,867.759L224.521,870.245C224.521,872.721 222.511,874.732 220.035,874.732L217.5,874.732ZM213.5,854.31L209.725,854.31C206.565,854.31 204,856.875 204,860.035L204,863.759L206.479,863.759L206.479,861.273C206.479,858.797 208.489,856.787 210.965,856.787L213.5,856.787L213.5,854.31ZM217.5,854.31L217.5,856.787L220.035,856.787C222.511,856.787 224.521,858.797 224.521,861.273L224.521,863.759L227,863.759L227,860.035C227,856.875 224.435,854.31 221.275,854.31L217.5,854.31Z" style="fill:white;"/>
        <path d="M222.521,867.759L208.479,867.759L208.479,869.245C208.479,871.169 210.041,872.732 211.965,872.732L219.035,872.732C220.959,872.732 222.521,871.169 222.521,869.245L222.521,867.759ZM208.479,863.759L222.521,863.759L222.521,862.273C222.521,860.349 220.959,858.787 219.035,858.787L211.965,858.787C210.041,858.787 208.479,860.349 208.479,862.273L208.479,863.759Z" style="fill:white;"/>
        <g transform="matrix(1,0,0,1,0,0.259384)">
            <rect x="204" y="865" width="23" height="1" style="fill:white;"/>
        </g>
    </g>
</svg>
